# MagicaVoxel @ Ephtracy

# group
o 

# material
mtllib hbitat_aguila.vox-0.mtl
usemtl palette

# normals
vn 0 0 -1
vn 0 0 1
vn -1 0 0
vn 1 0 0
vn 0 -1 0
vn 0 1 0

# texcoords
vt 0.939453 0.5
vt 0.943359 0.5
vt 0.947266 0.5
vt 0.970703 0.5
vt 0.974609 0.5
vt 0.978516 0.5
vt 0.986328 0.5
vt 0.990234 0.5
vt 0.994141 0.5

# verts
v 2.9 7.9 -1.8
v 3.3 7.9 -1.8
v 2.8 8 -1.8
v 2.9 8 -1.8
v 3.2 8 -1.8
v 3.3 8 -1.8
v 2.7 8.1 -1.8
v 2.8 8.1 -1.8
v 3.1 8.1 -1.8
v 3.2 8.1 -1.8
v 2.6 8.2 -1.8
v 2.7 8.2 -1.8
v 3 8.2 -1.8
v 3.1 8.2 -1.8
v 2.5 8.3 -1.8
v 2.6 8.3 -1.8
v 2.5 8.4 -1.8
v 3 8.4 -1.8
v 2.4 7.5 -1.7
v 2.5 7.5 -1.7
v 2.9 7.5 -1.7
v 2.4 7.6 -1.7
v 2.5 7.6 -1.7
v 2.9 7.6 -1.7
v 2.9 7.8 -1.7
v 3.2 7.8 -1.7
v 2.8 7.9 -1.7
v 2.9 7.9 -1.7
v 3.2 7.9 -1.7
v 2.7 8 -1.7
v 2.8 8 -1.7
v 2.9 8 -1.7
v 2.6 8.1 -1.7
v 2.7 8.1 -1.7
v 2.8 8.1 -1.7
v 2.5 8.2 -1.7
v 2.6 8.2 -1.7
v 2.7 8.2 -1.7
v 2.5 8.3 -1.7
v 2.6 8.3 -1.7
v 2.9 7.5 -1.6
v 3 7.5 -1.6
v 3.1 7.5 -1.6
v 2.6 7.6 -1.6
v 2.9 7.6 -1.6
v 3 7.6 -1.6
v 3.1 7.6 -1.6
v 2.5 7.8 -1.6
v 2.6 7.8 -1.6
v 2.9 7.8 -1.6
v 3.2 7.8 -1.6
v 3.4 7.8 -1.6
v 2.8 7.9 -1.6
v 2.9 7.9 -1.6
v 3.2 7.9 -1.6
v 3.3 7.9 -1.6
v 2.7 8 -1.6
v 2.8 8 -1.6
v 3.2 8 -1.6
v 3.3 8 -1.6
v 2.6 8.1 -1.6
v 2.7 8.1 -1.6
v 3.1 8.1 -1.6
v 3.2 8.1 -1.6
v 2.5 8.2 -1.6
v 2.6 8.2 -1.6
v 3 8.2 -1.6
v 3.1 8.2 -1.6
v 3 8.3 -1.6
v 3.4 8.3 -1.6
v 2.5 8.4 -1.6
v 3 8.4 -1.6
v 2.6 8.5 -1.6
v 2.8 8.5 -1.6
v 2.6 8.6 -1.6
v 2.7 8.6 -1.6
v 2.6 8.7 -1.6
v 2.7 8.7 -1.6
v 2.8 8.7 -1.6
v 2.9 8.7 -1.6
v 2.6 8.8 -1.6
v 2.9 8.8 -1.6
v 2.5 8.9 -1.6
v 3 8.9 -1.6
v 2.4 7.5 -1.5
v 2.5 7.5 -1.5
v 2.6 7.5 -1.5
v 2.4 7.6 -1.5
v 2.5 7.6 -1.5
v 2.6 7.6 -1.5
v 3.4 8 -1.5
v 3.7 8 -1.5
v 3.4 8.1 -1.5
v 3.7 8.1 -1.5
v 2.2 8.4 -1.4
v 2.3 8.4 -1.4
v 2.3 8.5 -1.4
v 2.5 8.5 -1.4
v 2.3 8.6 -1.4
v 2.5 8.6 -1.4
v 2.2 8.7 -1.4
v 2.5 8.7 -1.4
v 2.4 7.5 -1.2
v 2.5 7.5 -1.2
v 2.9 7.5 -1.2
v 2.4 7.6 -1.2
v 2.5 7.6 -1.2
v 2.9 7.6 -1.2
v 2.9 7.5 -1.1
v 3 7.5 -1.1
v 3.1 7.5 -1.1
v 2.6 7.6 -1.1
v 2.9 7.6 -1.1
v 3 7.6 -1.1
v 3.1 7.6 -1.1
v 2.6 7.8 -1.1
v 2.9 7.8 -1.1
v 2.4 7.5 -1
v 2.5 7.5 -1
v 2.6 7.5 -1
v 2.4 7.6 -1
v 2.5 7.6 -1
v 2.6 7.6 -1
v 2.4 7.5 -1.6
v 2.5 7.5 -1.6
v 2.6 7.5 -1.6
v 2.4 7.6 -1.6
v 2.5 7.6 -1.6
v 2.6 7.6 -1.6
v 2.9 7.5 -1.5
v 3 7.5 -1.5
v 3.1 7.5 -1.5
v 2.6 7.6 -1.5
v 2.9 7.6 -1.5
v 3 7.6 -1.5
v 3.1 7.6 -1.5
v 2.6 7.8 -1.5
v 2.9 7.8 -1.5
v 2.4 7.5 -1.4
v 2.5 7.5 -1.4
v 2.9 7.5 -1.4
v 2.4 7.6 -1.4
v 2.5 7.6 -1.4
v 2.9 7.6 -1.4
v 2.2 8.4 -1.2
v 2.3 8.4 -1.2
v 2.3 8.5 -1.2
v 2.5 8.5 -1.2
v 2.3 8.6 -1.2
v 2.5 8.6 -1.2
v 2.2 8.7 -1.2
v 2.5 8.7 -1.2
v 2.4 7.5 -1.1
v 2.5 7.5 -1.1
v 2.6 7.5 -1.1
v 2.4 7.6 -1.1
v 2.5 7.6 -1.1
v 2.6 7.6 -1.1
v 3.4 8 -1.1
v 3.7 8 -1.1
v 3.4 8.1 -1.1
v 3.7 8.1 -1.1
v 2.9 7.5 -1
v 3 7.5 -1
v 3.1 7.5 -1
v 2.6 7.6 -1
v 2.9 7.6 -1
v 3 7.6 -1
v 3.1 7.6 -1
v 2.5 7.8 -1
v 2.6 7.8 -1
v 2.9 7.8 -1
v 3.2 7.8 -1
v 3.4 7.8 -1
v 2.8 7.9 -1
v 2.9 7.9 -1
v 3.2 7.9 -1
v 3.3 7.9 -1
v 2.7 8 -1
v 2.8 8 -1
v 3.2 8 -1
v 3.3 8 -1
v 2.6 8.1 -1
v 2.7 8.1 -1
v 3.1 8.1 -1
v 3.2 8.1 -1
v 2.5 8.2 -1
v 2.6 8.2 -1
v 3 8.2 -1
v 3.1 8.2 -1
v 2.5 8.3 -1
v 2.6 8.3 -1
v 3 8.3 -1
v 3.4 8.3 -1
v 2.6 8.4 -1
v 3 8.4 -1
v 2.6 8.5 -1
v 2.8 8.5 -1
v 2.6 8.6 -1
v 2.7 8.6 -1
v 2.6 8.7 -1
v 2.7 8.7 -1
v 2.8 8.7 -1
v 2.9 8.7 -1
v 2.6 8.8 -1
v 2.9 8.8 -1
v 2.5 8.9 -1
v 3 8.9 -1
v 2.4 7.5 -0.9
v 2.5 7.5 -0.9
v 2.9 7.5 -0.9
v 2.4 7.6 -0.9
v 2.5 7.6 -0.9
v 2.9 7.6 -0.9
v 2.9 7.8 -0.9
v 3.2 7.8 -0.9
v 2.8 7.9 -0.9
v 2.9 7.9 -0.9
v 3.2 7.9 -0.9
v 2.7 8 -0.9
v 2.8 8 -0.9
v 2.9 8 -0.9
v 2.6 8.1 -0.9
v 2.7 8.1 -0.9
v 2.8 8.1 -0.9
v 2.5 8.2 -0.9
v 2.6 8.2 -0.9
v 2.7 8.2 -0.9
v 2.5 8.3 -0.9
v 2.6 8.3 -0.9
v 2.9 7.9 -0.8
v 3.3 7.9 -0.8
v 2.8 8 -0.8
v 2.9 8 -0.8
v 3.2 8 -0.8
v 3.3 8 -0.8
v 2.7 8.1 -0.8
v 2.8 8.1 -0.8
v 3.1 8.1 -0.8
v 3.2 8.1 -0.8
v 2.6 8.2 -0.8
v 2.7 8.2 -0.8
v 3 8.2 -0.8
v 3.1 8.2 -0.8
v 2.6 8.4 -0.8
v 3 8.4 -0.8
v 2.2 8.4 -1.4
v 2.2 8.7 -1.4
v 2.2 8.4 -1.2
v 2.2 8.7 -1.2
v 2.4 7.5 -1.7
v 2.4 7.6 -1.7
v 2.4 7.5 -1.6
v 2.4 7.6 -1.6
v 2.4 7.5 -1.5
v 2.4 7.6 -1.5
v 2.4 7.5 -1.4
v 2.4 7.6 -1.4
v 2.4 7.5 -1.2
v 2.4 7.6 -1.2
v 2.4 7.5 -1.1
v 2.4 7.6 -1.1
v 2.4 7.5 -1
v 2.4 7.6 -1
v 2.4 7.5 -0.9
v 2.4 7.6 -0.9
v 2.5 8.3 -1.8
v 2.5 8.4 -1.8
v 2.5 8.2 -1.7
v 2.5 8.3 -1.7
v 2.5 7.8 -1.6
v 2.5 8.2 -1.6
v 2.5 8.3 -1.6
v 2.5 8.4 -1.6
v 2.5 8.9 -1.6
v 2.5 8.5 -1.4
v 2.5 8.6 -1.4
v 2.5 8.7 -1.4
v 2.5 8.5 -1.2
v 2.5 8.6 -1.2
v 2.5 8.7 -1.2
v 2.5 7.8 -1
v 2.5 8.2 -1
v 2.5 8.3 -1
v 2.5 8.9 -1
v 2.5 8.2 -0.9
v 2.5 8.3 -0.9
v 2.6 8.2 -1.8
v 2.6 8.3 -1.8
v 2.6 8.1 -1.7
v 2.6 8.2 -1.7
v 2.6 8.3 -1.7
v 2.6 7.5 -1.6
v 2.6 7.6 -1.6
v 2.6 7.8 -1.6
v 2.6 8.1 -1.6
v 2.6 8.2 -1.6
v 2.6 7.5 -1.5
v 2.6 7.6 -1.5
v 2.6 7.8 -1.5
v 2.6 7.5 -1.1
v 2.6 7.6 -1.1
v 2.6 7.8 -1.1
v 2.6 7.5 -1
v 2.6 7.6 -1
v 2.6 7.8 -1
v 2.6 8.1 -1
v 2.6 8.2 -1
v 2.6 8.3 -1
v 2.6 8.4 -1
v 2.6 8.1 -0.9
v 2.6 8.2 -0.9
v 2.6 8.3 -0.9
v 2.6 8.2 -0.8
v 2.6 8.4 -0.8
v 2.7 8.1 -1.8
v 2.7 8.2 -1.8
v 2.7 8 -1.7
v 2.7 8.1 -1.7
v 2.7 8.2 -1.7
v 2.7 8 -1.6
v 2.7 8.1 -1.6
v 2.7 8 -1
v 2.7 8.1 -1
v 2.7 8 -0.9
v 2.7 8.1 -0.9
v 2.7 8.2 -0.9
v 2.7 8.1 -0.8
v 2.7 8.2 -0.8
v 2.8 8 -1.8
v 2.8 8.1 -1.8
v 2.8 7.9 -1.7
v 2.8 8 -1.7
v 2.8 8.1 -1.7
v 2.8 7.9 -1.6
v 2.8 8 -1.6
v 2.8 7.9 -1
v 2.8 8 -1
v 2.8 7.9 -0.9
v 2.8 8 -0.9
v 2.8 8.1 -0.9
v 2.8 8 -0.8
v 2.8 8.1 -0.8
v 2.9 7.9 -1.8
v 2.9 8 -1.8
v 2.9 7.8 -1.7
v 2.9 7.9 -1.7
v 2.9 8 -1.7
v 2.9 7.8 -1.6
v 2.9 7.9 -1.6
v 2.9 7.8 -1
v 2.9 7.9 -1
v 2.9 7.8 -0.9
v 2.9 7.9 -0.9
v 2.9 8 -0.9
v 2.9 7.9 -0.8
v 2.9 8 -0.8
v 2.3 8.4 -1.4
v 2.3 8.5 -1.4
v 2.3 8.4 -1.2
v 2.3 8.5 -1.2
v 2.9 7.5 -1.7
v 2.9 7.6 -1.7
v 2.9 7.5 -1.6
v 2.9 7.6 -1.6
v 2.9 7.8 -1.6
v 2.9 7.5 -1.5
v 2.9 7.6 -1.5
v 2.9 7.8 -1.5
v 2.9 7.5 -1.4
v 2.9 7.6 -1.4
v 2.9 7.5 -1.2
v 2.9 7.6 -1.2
v 2.9 7.5 -1.1
v 2.9 7.6 -1.1
v 2.9 7.8 -1.1
v 2.9 7.5 -1
v 2.9 7.6 -1
v 2.9 7.8 -1
v 2.9 7.5 -0.9
v 2.9 7.6 -0.9
v 3 8.2 -1.8
v 3 8.4 -1.8
v 3 8.2 -1.6
v 3 8.3 -1.6
v 3 8.4 -1.6
v 3 8.9 -1.6
v 3 8.2 -1
v 3 8.3 -1
v 3 8.4 -1
v 3 8.9 -1
v 3 8.2 -0.8
v 3 8.4 -0.8
v 3.1 8.1 -1.8
v 3.1 8.2 -1.8
v 3.1 7.5 -1.6
v 3.1 7.6 -1.6
v 3.1 8.1 -1.6
v 3.1 8.2 -1.6
v 3.1 7.5 -1.5
v 3.1 7.6 -1.5
v 3.1 7.5 -1.1
v 3.1 7.6 -1.1
v 3.1 7.5 -1
v 3.1 7.6 -1
v 3.1 8.1 -1
v 3.1 8.2 -1
v 3.1 8.1 -0.8
v 3.1 8.2 -0.8
v 3.2 8 -1.8
v 3.2 8.1 -1.8
v 3.2 7.8 -1.7
v 3.2 7.9 -1.7
v 3.2 7.8 -1.6
v 3.2 7.9 -1.6
v 3.2 8 -1.6
v 3.2 8.1 -1.6
v 3.2 7.8 -1
v 3.2 7.9 -1
v 3.2 8 -1
v 3.2 8.1 -1
v 3.2 7.8 -0.9
v 3.2 7.9 -0.9
v 3.2 8 -0.8
v 3.2 8.1 -0.8
v 3.3 7.9 -1.8
v 3.3 8 -1.8
v 3.3 7.9 -1.6
v 3.3 8 -1.6
v 3.3 7.9 -1
v 3.3 8 -1
v 3.3 7.9 -0.8
v 3.3 8 -0.8
v 3.4 7.8 -1.6
v 3.4 8.3 -1.6
v 3.4 8 -1.5
v 3.4 8.1 -1.5
v 3.4 8 -1.1
v 3.4 8.1 -1.1
v 3.4 7.8 -1
v 3.4 8.3 -1
v 3.7 8 -1.5
v 3.7 8.1 -1.5
v 3.7 8 -1.1
v 3.7 8.1 -1.1
v 2.4 7.5 -1.7
v 2.4 7.5 -1.6
v 2.4 7.5 -1.5
v 2.4 7.5 -1.4
v 2.4 7.5 -1.2
v 2.4 7.5 -1.1
v 2.4 7.5 -1
v 2.4 7.5 -0.9
v 2.5 7.5 -1.7
v 2.5 7.5 -1.6
v 2.5 7.5 -1.5
v 2.5 7.5 -1.4
v 2.5 7.5 -1.2
v 2.5 7.5 -1.1
v 2.5 7.5 -1
v 2.5 7.5 -0.9
v 2.6 7.5 -1.6
v 2.6 7.5 -1.5
v 2.6 7.5 -1.1
v 2.6 7.5 -1
v 2.7 7.5 -1.6
v 2.7 7.5 -1.5
v 2.7 7.5 -1.1
v 2.7 7.5 -1
v 2.9 7.5 -1.7
v 2.9 7.5 -1.6
v 2.9 7.5 -1.5
v 2.9 7.5 -1.4
v 2.9 7.5 -1.2
v 2.9 7.5 -1.1
v 2.9 7.5 -1
v 2.9 7.5 -0.9
v 3 7.5 -1.6
v 3 7.5 -1.5
v 3 7.5 -1.1
v 3 7.5 -1
v 3.1 7.5 -1.6
v 3.1 7.5 -1.5
v 3.1 7.5 -1.1
v 3.1 7.5 -1
v 2.5 7.8 -1.6
v 2.5 7.8 -1
v 2.6 7.8 -1.6
v 2.6 7.8 -1.5
v 2.6 7.8 -1.1
v 2.6 7.8 -1
v 2.9 7.8 -1.7
v 2.9 7.8 -1.6
v 2.9 7.8 -1.5
v 2.9 7.8 -1.1
v 2.9 7.8 -1
v 2.9 7.8 -0.9
v 3.2 7.8 -1.7
v 3.2 7.8 -1.6
v 3.2 7.8 -1
v 3.2 7.8 -0.9
v 3.4 7.8 -1.6
v 3.4 7.8 -1
v 2.8 7.9 -1.7
v 2.8 7.9 -1.6
v 2.8 7.9 -1
v 2.8 7.9 -0.9
v 2.9 7.9 -1.8
v 2.9 7.9 -1.7
v 2.9 7.9 -1.6
v 2.9 7.9 -1
v 2.9 7.9 -0.9
v 2.9 7.9 -0.8
v 3.2 7.9 -1.7
v 3.2 7.9 -1.6
v 3.2 7.9 -1
v 3.2 7.9 -0.9
v 3.3 7.9 -1.8
v 3.3 7.9 -1.6
v 3.3 7.9 -1
v 3.3 7.9 -0.8
v 2.7 8 -1.7
v 2.7 8 -1.6
v 2.7 8 -1
v 2.7 8 -0.9
v 2.8 8 -1.8
v 2.8 8 -1.7
v 2.8 8 -1.6
v 2.8 8 -1
v 2.8 8 -0.9
v 2.8 8 -0.8
v 2.9 8 -1.8
v 2.9 8 -1.7
v 2.9 8 -0.9
v 2.9 8 -0.8
v 3.4 8 -1.5
v 3.4 8 -1.1
v 3.7 8 -1.5
v 3.7 8 -1.1
v 2.6 8.1 -1.7
v 2.6 8.1 -1.6
v 2.6 8.1 -1
v 2.6 8.1 -0.9
v 2.7 8.1 -1.8
v 2.7 8.1 -1.7
v 2.7 8.1 -1.6
v 2.7 8.1 -1
v 2.7 8.1 -0.9
v 2.7 8.1 -0.8
v 2.8 8.1 -1.8
v 2.8 8.1 -1.7
v 2.8 8.1 -0.9
v 2.8 8.1 -0.8
v 2.5 8.2 -1.7
v 2.5 8.2 -1.6
v 2.5 8.2 -1
v 2.5 8.2 -0.9
v 2.6 8.2 -1.8
v 2.6 8.2 -1.7
v 2.6 8.2 -1.6
v 2.6 8.2 -1
v 2.6 8.2 -0.9
v 2.6 8.2 -0.8
v 2.7 8.2 -1.8
v 2.7 8.2 -1.7
v 2.7 8.2 -0.9
v 2.7 8.2 -0.8
v 2.5 8.3 -1.8
v 2.5 8.3 -1.7
v 2.6 8.3 -1.8
v 2.6 8.3 -1.7
v 2.2 8.4 -1.4
v 2.2 8.4 -1.2
v 2.3 8.4 -1.4
v 2.3 8.4 -1.2
v 2.3 8.5 -1.4
v 2.3 8.5 -1.2
v 2.5 8.5 -1.4
v 2.5 8.5 -1.2
v 2.4 7.6 -1.7
v 2.4 7.6 -1.6
v 2.4 7.6 -1.5
v 2.4 7.6 -1.4
v 2.4 7.6 -1.2
v 2.4 7.6 -1.1
v 2.4 7.6 -1
v 2.4 7.6 -0.9
v 2.5 7.6 -1.7
v 2.5 7.6 -1.6
v 2.5 7.6 -1.5
v 2.5 7.6 -1.4
v 2.5 7.6 -1.2
v 2.5 7.6 -1.1
v 2.5 7.6 -1
v 2.5 7.6 -0.9
v 2.6 7.6 -1.6
v 2.6 7.6 -1.5
v 2.6 7.6 -1.1
v 2.6 7.6 -1
v 2.9 7.6 -1.7
v 2.9 7.6 -1.6
v 2.9 7.6 -1.5
v 2.9 7.6 -1.4
v 2.9 7.6 -1.2
v 2.9 7.6 -1.1
v 2.9 7.6 -1
v 2.9 7.6 -0.9
v 3 7.6 -1.6
v 3 7.6 -1.5
v 3 7.6 -1.1
v 3 7.6 -1
v 3.1 7.6 -1.6
v 3.1 7.6 -1.5
v 3.1 7.6 -1.1
v 3.1 7.6 -1
v 3.2 8 -1.8
v 3.2 8 -1.6
v 3.2 8 -1
v 3.2 8 -0.8
v 3.3 8 -1.8
v 3.3 8 -1.6
v 3.3 8 -1
v 3.3 8 -0.8
v 3.1 8.1 -1.8
v 3.1 8.1 -1.6
v 3.1 8.1 -1
v 3.1 8.1 -0.8
v 3.2 8.1 -1.8
v 3.2 8.1 -1.6
v 3.2 8.1 -1
v 3.2 8.1 -0.8
v 3.4 8.1 -1.5
v 3.4 8.1 -1.1
v 3.7 8.1 -1.5
v 3.7 8.1 -1.1
v 3 8.2 -1.8
v 3 8.2 -1.6
v 3 8.2 -1
v 3 8.2 -0.8
v 3.1 8.2 -1.8
v 3.1 8.2 -1.6
v 3.1 8.2 -1
v 3.1 8.2 -0.8
v 2.5 8.3 -1
v 2.5 8.3 -0.9
v 2.6 8.3 -1
v 2.6 8.3 -0.9
v 3 8.3 -1.6
v 3 8.3 -1
v 3.4 8.3 -1.6
v 3.4 8.3 -1
v 2.5 8.4 -1.8
v 2.5 8.4 -1.6
v 2.6 8.4 -1
v 2.6 8.4 -0.8
v 3 8.4 -1.8
v 3 8.4 -1.6
v 3 8.4 -1
v 3 8.4 -0.8
v 2.2 8.7 -1.4
v 2.2 8.7 -1.2
v 2.5 8.7 -1.4
v 2.5 8.7 -1.2
v 2.5 8.9 -1.6
v 2.5 8.9 -1
v 3 8.9 -1.6
v 3 8.9 -1

# faces
f 4/2/1 2/2/1 1/2/1
f 5/2/1 2/2/1 4/2/1
f 6/2/1 2/2/1 5/2/1
f 8/2/1 4/2/1 3/2/1
f 8/2/1 5/2/1 4/2/1
f 9/2/1 5/2/1 8/2/1
f 10/2/1 5/2/1 9/2/1
f 12/2/1 8/2/1 7/2/1
f 12/2/1 9/2/1 8/2/1
f 13/2/1 9/2/1 12/2/1
f 14/2/1 9/2/1 13/2/1
f 16/2/1 12/2/1 11/2/1
f 16/2/1 13/2/1 12/2/1
f 17/2/1 16/2/1 15/2/1
f 18/2/1 13/2/1 16/2/1
f 18/2/1 16/2/1 17/2/1
f 22/2/1 20/2/1 19/2/1
f 23/3/1 21/3/1 20/3/1
f 23/2/1 20/2/1 22/2/1
f 24/3/1 21/3/1 23/3/1
f 28/3/1 26/3/1 25/3/1
f 29/3/1 26/3/1 28/3/1
f 31/3/1 28/3/1 27/3/1
f 32/3/1 28/3/1 31/3/1
f 34/3/1 31/3/1 30/3/1
f 35/3/1 31/3/1 34/3/1
f 37/3/1 34/3/1 33/3/1
f 38/3/1 34/3/1 37/3/1
f 39/2/1 37/2/1 36/2/1
f 40/2/1 37/2/1 39/2/1
f 45/3/1 42/3/1 41/3/1
f 46/2/1 43/2/1 42/2/1
f 46/3/1 42/3/1 45/3/1
f 47/2/1 43/2/1 46/2/1
f 49/2/1 45/2/1 44/2/1
f 50/2/1 45/2/1 49/2/1
f 53/2/1 50/2/1 49/2/1
f 53/2/1 49/2/1 48/2/1
f 54/2/1 50/2/1 53/2/1
f 55/2/1 52/2/1 51/2/1
f 56/2/1 52/2/1 55/2/1
f 57/2/1 53/2/1 48/2/1
f 58/2/1 53/2/1 57/2/1
f 60/2/1 52/2/1 56/2/1
f 61/2/1 57/2/1 48/2/1
f 62/2/1 57/2/1 61/2/1
f 64/2/1 60/2/1 59/2/1
f 65/2/1 61/2/1 48/2/1
f 66/2/1 61/2/1 65/2/1
f 68/2/1 64/2/1 63/2/1
f 69/2/1 68/2/1 67/2/1
f 70/2/1 64/2/1 68/2/1
f 70/2/1 68/2/1 69/2/1
f 70/2/1 52/2/1 60/2/1
f 70/2/1 60/2/1 64/2/1
f 73/8/1 72/8/1 71/8/1
f 74/8/1 72/8/1 73/8/1
f 75/8/1 73/8/1 71/8/1
f 75/1/1 74/1/1 73/1/1
f 76/1/1 74/1/1 75/1/1
f 77/8/1 75/8/1 71/8/1
f 77/9/1 76/9/1 75/9/1
f 78/1/1 74/1/1 76/1/1
f 78/9/1 76/9/1 77/9/1
f 79/8/1 72/8/1 74/8/1
f 79/1/1 74/1/1 78/1/1
f 80/8/1 72/8/1 79/8/1
f 81/6/1 78/6/1 77/6/1
f 81/8/1 77/8/1 71/8/1
f 81/6/1 80/6/1 79/6/1
f 81/6/1 79/6/1 78/6/1
f 82/8/1 72/8/1 80/8/1
f 82/6/1 80/6/1 81/6/1
f 83/8/1 81/8/1 71/8/1
f 83/8/1 82/8/1 81/8/1
f 84/8/1 72/8/1 82/8/1
f 84/8/1 82/8/1 83/8/1
f 88/2/1 86/2/1 85/2/1
f 89/3/1 87/3/1 86/3/1
f 89/2/1 86/2/1 88/2/1
f 90/3/1 87/3/1 89/3/1
f 93/2/1 92/2/1 91/2/1
f 94/2/1 92/2/1 93/2/1
f 97/4/1 96/4/1 95/4/1
f 99/4/1 97/4/1 95/4/1
f 99/7/1 98/7/1 97/7/1
f 100/7/1 98/7/1 99/7/1
f 101/4/1 99/4/1 95/4/1
f 101/4/1 100/4/1 99/4/1
f 102/4/1 100/4/1 101/4/1
f 106/2/1 104/2/1 103/2/1
f 107/3/1 105/3/1 104/3/1
f 107/2/1 104/2/1 106/2/1
f 108/3/1 105/3/1 107/3/1
f 113/3/1 110/3/1 109/3/1
f 114/2/1 111/2/1 110/2/1
f 114/3/1 110/3/1 113/3/1
f 115/2/1 111/2/1 114/2/1
f 116/2/1 113/2/1 112/2/1
f 117/2/1 113/2/1 116/2/1
f 121/2/1 119/2/1 118/2/1
f 122/3/1 120/3/1 119/3/1
f 122/2/1 119/2/1 121/2/1
f 123/3/1 120/3/1 122/3/1
f 124/2/2 125/2/2 127/2/2
f 125/3/2 126/3/2 128/3/2
f 127/2/2 125/2/2 128/2/2
f 128/3/2 126/3/2 129/3/2
f 130/3/2 131/3/2 134/3/2
f 131/2/2 132/2/2 135/2/2
f 134/3/2 131/3/2 135/3/2
f 135/2/2 132/2/2 136/2/2
f 133/2/2 134/2/2 137/2/2
f 137/2/2 134/2/2 138/2/2
f 139/2/2 140/2/2 142/2/2
f 140/3/2 141/3/2 143/3/2
f 142/2/2 140/2/2 143/2/2
f 143/3/2 141/3/2 144/3/2
f 145/4/2 146/4/2 147/4/2
f 145/4/2 147/4/2 149/4/2
f 147/7/2 148/7/2 149/7/2
f 149/7/2 148/7/2 150/7/2
f 145/4/2 149/4/2 151/4/2
f 149/4/2 150/4/2 151/4/2
f 151/4/2 150/4/2 152/4/2
f 153/2/2 154/2/2 156/2/2
f 154/3/2 155/3/2 157/3/2
f 156/2/2 154/2/2 157/2/2
f 157/3/2 155/3/2 158/3/2
f 159/2/2 160/2/2 161/2/2
f 161/2/2 160/2/2 162/2/2
f 163/3/2 164/3/2 167/3/2
f 164/2/2 165/2/2 168/2/2
f 167/3/2 164/3/2 168/3/2
f 168/2/2 165/2/2 169/2/2
f 166/2/2 167/2/2 171/2/2
f 171/2/2 167/2/2 172/2/2
f 171/2/2 172/2/2 175/2/2
f 170/2/2 171/2/2 175/2/2
f 175/2/2 172/2/2 176/2/2
f 173/2/2 174/2/2 177/2/2
f 177/2/2 174/2/2 178/2/2
f 170/2/2 175/2/2 179/2/2
f 179/2/2 175/2/2 180/2/2
f 178/2/2 174/2/2 182/2/2
f 170/2/2 179/2/2 183/2/2
f 183/2/2 179/2/2 184/2/2
f 181/2/2 182/2/2 186/2/2
f 170/2/2 183/2/2 187/2/2
f 187/2/2 183/2/2 188/2/2
f 185/2/2 186/2/2 190/2/2
f 189/2/2 190/2/2 193/2/2
f 182/2/2 174/2/2 194/2/2
f 193/2/2 190/2/2 194/2/2
f 186/2/2 182/2/2 194/2/2
f 190/2/2 186/2/2 194/2/2
f 191/8/2 192/8/2 195/8/2
f 191/8/2 195/8/2 197/8/2
f 195/8/2 196/8/2 197/8/2
f 197/8/2 196/8/2 198/8/2
f 191/8/2 197/8/2 199/8/2
f 197/1/2 198/1/2 199/1/2
f 199/1/2 198/1/2 200/1/2
f 191/8/2 199/8/2 201/8/2
f 199/9/2 200/9/2 201/9/2
f 200/1/2 198/1/2 202/1/2
f 201/9/2 200/9/2 202/9/2
f 198/8/2 196/8/2 203/8/2
f 202/1/2 198/1/2 203/1/2
f 203/8/2 196/8/2 204/8/2
f 201/6/2 202/6/2 205/6/2
f 191/8/2 201/8/2 205/8/2
f 203/6/2 204/6/2 205/6/2
f 202/6/2 203/6/2 205/6/2
f 204/8/2 196/8/2 206/8/2
f 205/6/2 204/6/2 206/6/2
f 191/8/2 205/8/2 207/8/2
f 205/8/2 206/8/2 207/8/2
f 206/8/2 196/8/2 208/8/2
f 207/8/2 206/8/2 208/8/2
f 209/2/2 210/2/2 212/2/2
f 210/3/2 211/3/2 213/3/2
f 212/2/2 210/2/2 213/2/2
f 213/3/2 211/3/2 214/3/2
f 215/3/2 216/3/2 218/3/2
f 218/3/2 216/3/2 219/3/2
f 217/3/2 218/3/2 221/3/2
f 221/3/2 218/3/2 222/3/2
f 220/3/2 221/3/2 224/3/2
f 224/3/2 221/3/2 225/3/2
f 223/3/2 224/3/2 227/3/2
f 227/3/2 224/3/2 228/3/2
f 226/3/2 227/3/2 229/3/2
f 229/3/2 227/3/2 230/3/2
f 231/2/2 232/2/2 234/2/2
f 234/2/2 232/2/2 235/2/2
f 235/2/2 232/2/2 236/2/2
f 233/2/2 234/2/2 238/2/2
f 234/2/2 235/2/2 238/2/2
f 238/2/2 235/2/2 239/2/2
f 239/2/2 235/2/2 240/2/2
f 237/2/2 238/2/2 242/2/2
f 238/2/2 239/2/2 242/2/2
f 242/2/2 239/2/2 243/2/2
f 243/2/2 239/2/2 244/2/2
f 241/2/2 242/2/2 245/2/2
f 242/2/2 243/2/2 245/2/2
f 245/2/2 243/2/2 246/2/2
f 249/4/3 248/4/3 247/4/3
f 250/4/3 248/4/3 249/4/3
f 253/2/3 252/2/3 251/2/3
f 254/2/3 252/2/3 253/2/3
f 257/2/3 256/2/3 255/2/3
f 258/2/3 256/2/3 257/2/3
f 261/2/3 260/2/3 259/2/3
f 262/2/3 260/2/3 261/2/3
f 265/2/3 264/2/3 263/2/3
f 266/2/3 264/2/3 265/2/3
f 270/2/3 268/2/3 267/2/3
f 272/2/3 270/2/3 269/2/3
f 273/2/3 268/2/3 270/2/3
f 273/2/3 270/2/3 272/2/3
f 274/2/3 268/2/3 273/2/3
f 276/8/3 274/8/3 273/8/3
f 276/8/3 275/8/3 274/8/3
f 277/8/3 275/8/3 276/8/3
f 278/8/3 275/8/3 277/8/3
f 279/8/3 276/8/3 273/8/3
f 281/8/3 275/8/3 278/8/3
f 282/2/3 272/2/3 271/2/3
f 282/2/3 273/2/3 272/2/3
f 283/2/3 273/2/3 282/2/3
f 284/8/3 281/8/3 280/8/3
f 284/2/3 273/2/3 283/2/3
f 284/8/3 280/8/3 279/8/3
f 284/8/3 279/8/3 273/8/3
f 285/8/3 275/8/3 281/8/3
f 285/8/3 281/8/3 284/8/3
f 286/3/3 284/3/3 283/3/3
f 287/3/3 284/3/3 286/3/3
f 291/2/3 289/2/3 288/2/3
f 292/2/3 289/2/3 291/2/3
f 296/3/3 291/3/3 290/3/3
f 297/3/3 291/3/3 296/3/3
f 298/3/3 294/3/3 293/3/3
f 299/2/3 295/2/3 294/2/3
f 299/3/3 294/3/3 298/3/3
f 300/2/3 295/2/3 299/2/3
f 304/3/3 302/3/3 301/3/3
f 305/2/3 303/2/3 302/2/3
f 305/3/3 302/3/3 304/3/3
f 306/2/3 303/2/3 305/2/3
f 311/3/3 308/3/3 307/3/3
f 312/3/3 308/3/3 311/3/3
f 313/2/3 310/2/3 309/2/3
f 314/2/3 313/2/3 312/2/3
f 315/2/3 310/2/3 313/2/3
f 315/2/3 313/2/3 314/2/3
f 319/2/3 317/2/3 316/2/3
f 320/2/3 317/2/3 319/2/3
f 321/3/3 319/3/3 318/3/3
f 322/3/3 319/3/3 321/3/3
f 325/3/3 324/3/3 323/3/3
f 326/3/3 324/3/3 325/3/3
f 328/2/3 327/2/3 326/2/3
f 329/2/3 327/2/3 328/2/3
f 333/2/3 331/2/3 330/2/3
f 334/2/3 331/2/3 333/2/3
f 335/3/3 333/3/3 332/3/3
f 336/3/3 333/3/3 335/3/3
f 339/3/3 338/3/3 337/3/3
f 340/3/3 338/3/3 339/3/3
f 342/2/3 341/2/3 340/2/3
f 343/2/3 341/2/3 342/2/3
f 347/2/3 345/2/3 344/2/3
f 348/2/3 345/2/3 347/2/3
f 349/3/3 347/3/3 346/3/3
f 350/3/3 347/3/3 349/3/3
f 353/3/3 352/3/3 351/3/3
f 354/3/3 352/3/3 353/3/3
f 356/2/3 355/2/3 354/2/3
f 357/2/3 355/2/3 356/2/3
f 358/4/4 359/4/4 360/4/4
f 360/4/4 359/4/4 361/4/4
f 362/3/4 363/3/4 364/3/4
f 364/3/4 363/3/4 365/3/4
f 365/2/4 366/2/4 368/2/4
f 368/2/4 366/2/4 369/2/4
f 367/3/4 368/3/4 370/3/4
f 370/3/4 368/3/4 371/3/4
f 372/3/4 373/3/4 374/3/4
f 374/3/4 373/3/4 375/3/4
f 375/2/4 376/2/4 378/2/4
f 378/2/4 376/2/4 379/2/4
f 377/3/4 378/3/4 380/3/4
f 380/3/4 378/3/4 381/3/4
f 382/2/4 383/2/4 384/2/4
f 384/2/4 383/2/4 385/2/4
f 385/2/4 383/2/4 386/2/4
f 386/8/4 387/8/4 389/8/4
f 385/8/4 386/8/4 389/8/4
f 389/8/4 387/8/4 390/8/4
f 390/8/4 387/8/4 391/8/4
f 388/2/4 389/2/4 392/2/4
f 389/2/4 390/2/4 392/2/4
f 392/2/4 390/2/4 393/2/4
f 394/2/4 395/2/4 398/2/4
f 398/2/4 395/2/4 399/2/4
f 396/2/4 397/2/4 400/2/4
f 400/2/4 397/2/4 401/2/4
f 402/2/4 403/2/4 404/2/4
f 404/2/4 403/2/4 405/2/4
f 406/2/4 407/2/4 408/2/4
f 408/2/4 407/2/4 409/2/4
f 412/3/4 413/3/4 414/3/4
f 414/3/4 413/3/4 415/3/4
f 410/2/4 411/2/4 416/2/4
f 416/2/4 411/2/4 417/2/4
f 418/3/4 419/3/4 422/3/4
f 422/3/4 419/3/4 423/3/4
f 420/2/4 421/2/4 424/2/4
f 424/2/4 421/2/4 425/2/4
f 426/2/4 427/2/4 428/2/4
f 428/2/4 427/2/4 429/2/4
f 430/2/4 431/2/4 432/2/4
f 432/2/4 431/2/4 433/2/4
f 434/2/4 435/2/4 436/2/4
f 436/2/4 435/2/4 437/2/4
f 434/2/4 436/2/4 438/2/4
f 437/2/4 435/2/4 439/2/4
f 434/2/4 438/2/4 440/2/4
f 438/2/4 439/2/4 440/2/4
f 439/2/4 435/2/4 441/2/4
f 440/2/4 439/2/4 441/2/4
f 442/2/4 443/2/4 444/2/4
f 444/2/4 443/2/4 445/2/4
f 454/2/5 447/2/5 446/2/5
f 455/2/5 447/2/5 454/2/5
f 456/2/5 449/2/5 448/2/5
f 457/2/5 449/2/5 456/2/5
f 458/2/5 451/2/5 450/2/5
f 459/2/5 451/2/5 458/2/5
f 460/2/5 453/2/5 452/2/5
f 461/2/5 453/2/5 460/2/5
f 462/3/5 455/3/5 454/3/5
f 463/3/5 457/3/5 456/3/5
f 464/3/5 459/3/5 458/3/5
f 465/3/5 461/3/5 460/3/5
f 466/3/5 463/3/5 462/3/5
f 466/3/5 462/3/5 454/3/5
f 467/3/5 457/3/5 463/3/5
f 467/3/5 463/3/5 466/3/5
f 468/3/5 465/3/5 464/3/5
f 468/3/5 464/3/5 458/3/5
f 469/3/5 461/3/5 465/3/5
f 469/3/5 465/3/5 468/3/5
f 470/3/5 466/3/5 454/3/5
f 471/4/5 467/4/5 466/4/5
f 471/3/5 466/3/5 470/3/5
f 472/3/5 457/3/5 467/3/5
f 472/4/5 467/4/5 471/4/5
f 473/3/5 457/3/5 472/3/5
f 474/3/5 468/3/5 458/3/5
f 475/4/5 469/4/5 468/4/5
f 475/3/5 468/3/5 474/3/5
f 476/3/5 461/3/5 469/3/5
f 476/4/5 469/4/5 475/4/5
f 477/3/5 461/3/5 476/3/5
f 478/3/5 472/3/5 471/3/5
f 479/3/5 472/3/5 478/3/5
f 480/3/5 476/3/5 475/3/5
f 481/3/5 476/3/5 480/3/5
f 482/2/5 479/2/5 478/2/5
f 483/2/5 479/2/5 482/2/5
f 484/2/5 481/2/5 480/2/5
f 485/2/5 481/2/5 484/2/5
f 488/2/5 487/2/5 486/2/5
f 489/2/5 487/2/5 488/2/5
f 490/2/5 487/2/5 489/2/5
f 491/2/5 487/2/5 490/2/5
f 494/2/5 490/2/5 489/2/5
f 495/2/5 490/2/5 494/2/5
f 498/3/5 493/3/5 492/3/5
f 499/2/5 496/2/5 495/2/5
f 499/3/5 493/3/5 498/3/5
f 499/2/5 494/2/5 493/2/5
f 499/2/5 495/2/5 494/2/5
f 500/3/5 497/3/5 496/3/5
f 500/2/5 496/2/5 499/2/5
f 501/3/5 497/3/5 500/3/5
f 502/2/5 500/2/5 499/2/5
f 503/2/5 500/2/5 502/2/5
f 509/3/5 505/3/5 504/3/5
f 510/3/5 505/3/5 509/3/5
f 511/3/5 507/3/5 506/3/5
f 512/3/5 507/3/5 511/3/5
f 514/2/5 509/2/5 508/2/5
f 517/2/5 513/2/5 512/2/5
f 518/2/5 515/2/5 514/2/5
f 518/2/5 514/2/5 508/2/5
f 519/2/5 515/2/5 518/2/5
f 520/2/5 517/2/5 516/2/5
f 521/2/5 513/2/5 517/2/5
f 521/2/5 517/2/5 520/2/5
f 527/3/5 523/3/5 522/3/5
f 528/3/5 523/3/5 527/3/5
f 529/3/5 525/3/5 524/3/5
f 530/3/5 525/3/5 529/3/5
f 532/2/5 527/2/5 526/2/5
f 533/2/5 527/2/5 532/2/5
f 534/2/5 531/2/5 530/2/5
f 535/2/5 531/2/5 534/2/5
f 538/2/5 537/2/5 536/2/5
f 539/2/5 537/2/5 538/2/5
f 545/3/5 541/3/5 540/3/5
f 546/3/5 541/3/5 545/3/5
f 547/3/5 543/3/5 542/3/5
f 548/3/5 543/3/5 547/3/5
f 550/2/5 545/2/5 544/2/5
f 551/2/5 545/2/5 550/2/5
f 552/2/5 549/2/5 548/2/5
f 553/2/5 549/2/5 552/2/5
f 559/2/5 555/2/5 554/2/5
f 560/2/5 555/2/5 559/2/5
f 561/3/5 557/3/5 556/3/5
f 562/3/5 557/3/5 561/3/5
f 564/2/5 559/2/5 558/2/5
f 565/2/5 559/2/5 564/2/5
f 566/2/5 563/2/5 562/2/5
f 567/2/5 563/2/5 566/2/5
f 570/2/5 569/2/5 568/2/5
f 571/2/5 569/2/5 570/2/5
f 574/4/5 573/4/5 572/4/5
f 575/4/5 573/4/5 574/4/5
f 578/7/5 577/7/5 576/7/5
f 579/7/5 577/7/5 578/7/5
f 580/2/6 581/2/6 588/2/6
f 588/2/6 581/2/6 589/2/6
f 582/2/6 583/2/6 590/2/6
f 590/2/6 583/2/6 591/2/6
f 584/2/6 585/2/6 592/2/6
f 592/2/6 585/2/6 593/2/6
f 586/2/6 587/2/6 594/2/6
f 594/2/6 587/2/6 595/2/6
f 588/3/6 589/3/6 596/3/6
f 590/3/6 591/3/6 597/3/6
f 592/3/6 593/3/6 598/3/6
f 594/3/6 595/3/6 599/3/6
f 588/3/6 596/3/6 600/3/6
f 600/3/6 596/3/6 601/3/6
f 597/3/6 591/3/6 602/3/6
f 602/3/6 591/3/6 603/3/6
f 592/3/6 598/3/6 604/3/6
f 604/3/6 598/3/6 605/3/6
f 599/3/6 595/3/6 606/3/6
f 606/3/6 595/3/6 607/3/6
f 601/3/6 602/3/6 608/3/6
f 608/3/6 602/3/6 609/3/6
f 605/3/6 606/3/6 610/3/6
f 610/3/6 606/3/6 611/3/6
f 608/2/6 609/2/6 612/2/6
f 612/2/6 609/2/6 613/2/6
f 610/2/6 611/2/6 614/2/6
f 614/2/6 611/2/6 615/2/6
f 616/2/6 617/2/6 620/2/6
f 620/2/6 617/2/6 621/2/6
f 618/2/6 619/2/6 622/2/6
f 622/2/6 619/2/6 623/2/6
f 624/2/6 625/2/6 628/2/6
f 628/2/6 625/2/6 629/2/6
f 626/2/6 627/2/6 630/2/6
f 630/2/6 627/2/6 631/2/6
f 632/2/6 633/2/6 634/2/6
f 634/2/6 633/2/6 635/2/6
f 636/2/6 637/2/6 640/2/6
f 640/2/6 637/2/6 641/2/6
f 638/2/6 639/2/6 642/2/6
f 642/2/6 639/2/6 643/2/6
f 644/3/6 645/3/6 646/3/6
f 646/3/6 645/3/6 647/3/6
f 648/2/6 649/2/6 650/2/6
f 650/2/6 649/2/6 651/2/6
f 652/2/6 653/2/6 656/2/6
f 656/2/6 653/2/6 657/2/6
f 654/2/6 655/2/6 658/2/6
f 658/2/6 655/2/6 659/2/6
f 660/4/6 661/4/6 662/4/6
f 662/4/6 661/4/6 663/4/6
f 664/8/6 665/8/6 666/8/6
f 666/8/6 665/8/6 667/8/6
